<?xml version="1.0" encoding="utf-8"?>
<!-- Generator: Adobe Illustrator 27.5.0, SVG Export Plug-In . SVG Version: 6.00 Build 0)  -->
<svg version="1.1" id="Layer_1" xmlns="http://www.w3.org/2000/svg" xmlns:xlink="http://www.w3.org/1999/xlink" x="0px" y="0px"
	 viewBox="0 0 690.3 209.1" style="enable-background:new 0 0 690.3 209.1;" xml:space="preserve">
<style type="text/css">
	.st0{fill-rule:evenodd;clip-rule:evenodd;fill:#171D4E;}
	.st1{fill:#FF0023;}
	.st2{fill:#00A8FF;}
	.st3{fill:#FF00EB;}
	.st4{fill:#04A9C6;}
	.st5{fill:#0200FF;}
	.st6{fill:#8F00FF;}
	.st7{fill:#0065FF;}
	.st8{fill:#7800FF;}
	.st9{fill:#00C5FF;}
	.st10{fill:#01AB83;}
	.st11{fill:#05AB26;}
	.st12{fill:#49AB03;}
	.st13{fill:#83C606;}
	.st14{fill:#FFCC00;}
	.st15{fill:#FF8C00;}
	.st16{fill:#5E00FF;}
	.st17{fill:#171D4E;}
	.st18{font-family:'Poppins-ExtraBold';}
	.st19{font-size:76.92px;}
</style>
<g>
	<path class="st0" d="M101.5,64.3c3.1,0,5.5,2.5,5.5,5.5c0,3.1-2.5,5.5-5.5,5.5h-5.9V115l42.9,68.8c2.1,3.4,2.2,7.7,0.3,11.2
		c-1.9,3.5-5.6,5.7-9.7,5.7H11c-4,0-7.7-2.2-9.7-5.7c-2-3.5-1.8-7.8,0.3-11.2L44.6,115V75.3h-7.4c-3,0-5.5-2.5-5.5-5.5
		s2.5-5.5,5.5-5.5h18.5v53.8L11,189.7h118l-44.6-71.5V64.3L101.5,64.3L101.5,64.3z"/>
	<circle class="st1" cx="35.9" cy="177.3" r="8.6"/>
	<circle class="st2" cx="53.4" cy="159.8" r="11.7"/>
	<circle class="st3" cx="53.8" cy="180.1" r="5.1"/>
	<circle class="st4" cx="56.4" cy="139.6" r="5.5"/>
	<circle class="st5" cx="100.2" cy="173.1" r="11.4"/>
	<circle class="st6" cx="69.4" cy="177" r="6.5"/>
	<circle class="st7" cx="78.8" cy="158.1" r="10"/>
	<circle class="st8" cx="82.8" cy="176.9" r="3.2"/>
	<circle class="st9" cx="96.4" cy="154.9" r="4.8"/>
	<circle class="st10" cx="75" cy="137.4" r="8.1"/>
	<circle class="st11" cx="69" cy="119.1" r="6.1"/>
	<circle class="st12" cx="69.1" cy="99.6" r="7.4"/>
	<circle class="st13" cx="73.4" cy="79.3" r="4.3"/>
	<circle class="st14" cx="62.4" cy="58.2" r="5.9"/>
	<circle class="st15" cx="87.6" cy="45.5" r="8.8"/>
	<circle class="st6" cx="99.7" cy="9.7" r="9.7"/>
	<circle class="st1" cx="107.2" cy="31.5" r="6.8"/>
	<circle class="st16" cx="127.8" cy="13" r="10.6"/>
</g>
<text transform="matrix(1 0 0 1 156.7887 161.68)" class="st17 st18 st19">NGenuity Lab</text>
</svg>
