<?xml version="1.0" encoding="UTF-8"?>
<svg id="Layer_1" data-name="Layer 1" xmlns="http://www.w3.org/2000/svg" viewBox="0 0 734.02 236.62">
  <defs>
    <style>
      .cls-1 {
        fill: rgba(255, 0, 237, 0);
      }

      .cls-2 {
        fill: rgba(153, 0, 255, 0);
      }

      .cls-3 {
        fill: rgba(94, 0, 255, 0);
      }

      .cls-4 {
        font-family: Poppins-ExtraBold, Poppins;
        font-size: 76.92px;
        font-weight: 700;
      }

      .cls-4, .cls-5 {
        fill: #171d4e;
      }

      .cls-6 {
        fill: #01ab83;
      }

      .cls-7 {
        fill: #00c5ff;
      }

      .cls-8 {
        fill: #00a8ff;
      }

      .cls-9 {
        fill: #0065ff;
      }

      .cls-10 {
        fill: #0200ff;
      }

      .cls-11 {
        fill: #fc0;
      }

      .cls-12 {
        fill: #ff0023;
      }

      .cls-13 {
        fill: #ff00eb;
      }

      .cls-14 {
        fill: #ff8c00;
      }

      .cls-15 {
        fill: #83c606;
      }

      .cls-16 {
        fill: #8f00ff;
      }

      .cls-17 {
        fill: #04a9c6;
      }

      .cls-18 {
        fill: #05ab26;
      }

      .cls-19 {
        fill: #49ab03;
      }

      .cls-20 {
        fill: #5e00ff;
      }

      .cls-21 {
        fill: #7800ff;
      }

      .cls-5 {
        fill-rule: evenodd;
      }
    </style>
  </defs>
  <g>
    <path class="cls-5" d="m101.47,91.83c3.05,0,5.53,2.48,5.53,5.53s-2.48,5.53-5.53,5.53h-5.95v39.63l42.93,68.85c2.12,3.41,2.23,7.7.29,11.21-1.95,3.51-5.65,5.69-9.66,5.69H11.05c-4.01,0-7.72-2.18-9.66-5.69-1.95-3.51-1.84-7.8.29-11.21l42.93-68.85v-39.63h-7.4c-3.05,0-5.53-2.47-5.53-5.53s2.48-5.53,5.53-5.53h18.45v53.84L11.05,217.22h118.02l-44.6-71.54v-53.84h17Z"/>
    <circle class="cls-12" cx="35.94" cy="204.81" r="8.58"/>
    <circle class="cls-8" cx="53.4" cy="187.34" r="11.68"/>
    <circle class="cls-13" cx="53.8" cy="207.7" r="5.09"/>
    <circle class="cls-17" cx="56.39" cy="167.18" r="5.49"/>
    <circle class="cls-10" cx="100.21" cy="200.61" r="11.38"/>
    <circle class="cls-16" cx="69.37" cy="204.51" r="6.49"/>
    <circle class="cls-9" cx="78.85" cy="185.64" r="9.98"/>
    <circle class="cls-21" cx="82.84" cy="204.41" r="3.19"/>
    <circle class="cls-7" cx="96.42" cy="182.45" r="4.79"/>
    <circle class="cls-6" cx="74.96" cy="164.98" r="8.09"/>
    <circle class="cls-18" cx="68.97" cy="146.62" r="6.09"/>
    <circle class="cls-19" cx="69.07" cy="127.15" r="7.39"/>
    <circle class="cls-15" cx="73.36" cy="106.89" r="4.29"/>
    <circle class="cls-11" cx="62.38" cy="85.73" r="5.89"/>
    <circle class="cls-14" cx="87.64" cy="73.06" r="8.78"/>
    <circle class="cls-16" cx="99.71" cy="37.23" r="9.68"/>
    <circle class="cls-12" cx="107.2" cy="59.09" r="6.79"/>
    <circle class="cls-20" cx="127.76" cy="40.52" r="10.58"/>
    <circle class="cls-1" cx="161.89" cy="52.7" r="7.59"/>
    <circle class="cls-2" cx="184.65" cy="6.39" r="6.39"/>
    <circle class="cls-3" cx="154.51" cy="20.56" r="9.78"/>
  </g>
  <text class="cls-4" transform="translate(156.79 189.23)"><tspan x="0" y="0">NGenuity Labs</tspan></text>
</svg>