<?xml version="1.0" encoding="utf-8"?>
<!-- Generator: Adobe Illustrator 27.5.0, SVG Export Plug-In . SVG Version: 6.00 Build 0)  -->
<svg version="1.1" id="Layer_1" xmlns="http://www.w3.org/2000/svg" xmlns:xlink="http://www.w3.org/1999/xlink" x="0px" y="0px"
	 viewBox="0 0 1150.4 201.6" style="enable-background:new 0 0 1150.4 201.6;" xml:space="preserve">
<style type="text/css">
	.st0{fill:#FFFFFF;}
	.st1{fill-rule:evenodd;clip-rule:evenodd;fill:#FF0023;}
	.st2{fill-rule:evenodd;clip-rule:evenodd;fill:#00A8FF;}
	.st3{fill-rule:evenodd;clip-rule:evenodd;fill:#FF00EB;}
	.st4{fill-rule:evenodd;clip-rule:evenodd;fill:#04A9C6;}
	.st5{fill-rule:evenodd;clip-rule:evenodd;fill:#0200FF;}
	.st6{fill-rule:evenodd;clip-rule:evenodd;fill:#8F00FF;}
	.st7{fill-rule:evenodd;clip-rule:evenodd;fill:#0065FF;}
	.st8{fill-rule:evenodd;clip-rule:evenodd;fill:#7800FF;}
	.st9{fill-rule:evenodd;clip-rule:evenodd;fill:#00C5FF;}
	.st10{fill-rule:evenodd;clip-rule:evenodd;fill:#01AB83;}
	.st11{fill-rule:evenodd;clip-rule:evenodd;fill:#05AB26;}
	.st12{fill-rule:evenodd;clip-rule:evenodd;fill:#49AB03;}
	.st13{fill-rule:evenodd;clip-rule:evenodd;fill:#83C606;}
	.st14{fill-rule:evenodd;clip-rule:evenodd;fill:#FFCC00;}
	.st15{fill-rule:evenodd;clip-rule:evenodd;fill:#FF8C00;}
	.st16{fill-rule:evenodd;clip-rule:evenodd;fill:#5E00FF;}
	.st17{font-family:'Poppins-Bold';}
	.st18{font-size:76.9245px;}
</style>
<g transform="rotate(0 311.25900580590576 234.13459928953557)">
	<path class="st0" d="M101.5,64.3c3,0,5.5,2.5,5.5,5.5c0,3.1-2.5,5.5-5.5,5.5h-5.9v39.6l42.9,68.9c2.1,3.4,2.2,7.7,0.3,11.2
		c-2,3.5-5.6,5.7-9.7,5.7h-118c-4,0-7.7-2.2-9.7-5.7s-1.8-7.8,0.3-11.2l42.9-68.9V75.3h-7.4c-3,0-5.5-2.5-5.5-5.5s2.5-5.5,5.5-5.5
		h18.5v53.8l-44.6,71.5h118l-44.6-71.5V64.3H101.5L101.5,64.3z"/>
	<circle class="st1" cx="35.9" cy="177.3" r="8.6"/>
	<circle class="st2" cx="53.4" cy="159.8" r="11.7"/>
	<circle class="st3" cx="53.8" cy="180.2" r="5.1"/>
	<circle class="st4" cx="56.4" cy="139.7" r="5.5"/>
	<circle class="st5" cx="100.2" cy="173.1" r="11.4"/>
	<circle class="st6" cx="69.4" cy="177" r="6.5"/>
	<circle class="st7" cx="78.9" cy="158.1" r="10"/>
	<circle class="st8" cx="82.8" cy="176.9" r="3.2"/>
	<circle class="st9" cx="96.4" cy="154.9" r="4.8"/>
	<circle class="st10" cx="75" cy="137.5" r="8.1"/>
	<circle class="st11" cx="69" cy="119.1" r="6.1"/>
	<circle class="st12" cx="69.1" cy="99.7" r="7.4"/>
	<circle class="st13" cx="73.4" cy="79.4" r="4.3"/>
	<circle class="st14" cx="62.4" cy="58.2" r="5.9"/>
	<circle class="st15" cx="87.6" cy="45.6" r="8.8"/>
	<circle class="st6" cx="99.7" cy="9.7" r="9.7"/>
	<circle class="st1" cx="107.2" cy="31.6" r="6.8"/>
	<circle class="st16" cx="127.8" cy="13" r="10.6"/>
</g>
<text transform="matrix(1 0 0 1 173.7778 154.9471)" class="st0 st17 st18">NGenuity Lab @ NTU MSE</text>
<rect x="387" y="310.5" style="fill:none;" width="5" height="0"/>
</svg>
