<svg xmlns="http://www.w3.org/2000/svg" viewBox="26.459991455078125 49.999999999999986 522.0800170898438 474.99969702693454"> <g transform="rotate(0 311.25900580590576 234.13459928953557)"><svg xmlns="http://www.w3.org/2000/svg" xmlns:xlink="http://www.w3.org/1999/xlink" xmlnsSerif="http://www.serif.com/" viewBox="0.0002892613410949707 0 57.39071273803711 68.57699584960938" version="1.1" xml:space="preserve" height="228.26919857907117" width="191.0338834117643" y="119.99999999999999" x="215.7420641000236" preserveAspectRatio="xMinYMin" fill-rule="evenodd" clip-rule="evenodd" stroke-linejoin="round" stroke-miterlimit="2" style="overflow: visible;"><path d="M30.485,27.589c0.916,0 1.66,0.744 1.66,1.66c-0,0.917 -0.744,1.66 -1.66,1.66l-1.787,0l-0,11.906l12.896,20.685c0.638,1.024 0.671,2.313 0.086,3.368c-0.586,1.055 -1.697,1.709 -2.903,1.709l-35.457,0c-1.206,0 -2.318,-0.654 -2.903,-1.709c-0.585,-1.055 -0.552,-2.344 0.086,-3.368c-0,0 12.896,-20.685 12.896,-20.685l0,-11.906l-2.224,0c-0.916,0 -1.66,-0.743 -1.66,-1.66c-0,-0.916 0.744,-1.66 1.66,-1.66l5.544,0l0,16.176l-13.399,21.492l35.457,-0l-13.4,-21.492l0,-16.176l5.108,0Z" style="fill: #171d4e; fill-opacity: 1;"></path><circle cx="10.796" cy="61.528" r="2.579" style="fill: #ff0023;"></circle><circle cx="16.043" cy="56.28" r="3.508" style="fill: #00a8ff;"></circle><circle cx="16.163" cy="62.397" r="1.529" style="fill: #ff00eb;"></circle><circle cx="16.942" cy="50.224" r="1.649" style="fill: #04a9c6; fill-opacity: 1;"></circle><circle cx="30.106" cy="60.268" r="3.418" style="fill: #0200ff;"></circle><circle cx="20.84" cy="61.438" r="1.949" style="fill: #8f00ff;"></circle><circle cx="23.689" cy="55.771" r="2.998" style="fill: #0065ff;"></circle><circle cx="24.888" cy="61.408" r="0.959" style="fill: #7800ff;"></circle><circle cx="28.966" cy="54.811" r="1.439" style="fill: #00c5ff;"></circle><circle cx="22.519" cy="49.564" r="2.429" style="fill: #01ab83; fill-opacity: 1;"></circle><circle cx="20.72" cy="44.047" r="1.829" style="fill: #05ab26; fill-opacity: 1;"></circle><circle cx="20.75" cy="38.2" r="2.219" style="fill: #49ab03; fill-opacity: 1;"></circle><circle cx="22.04" cy="32.113" r="1.289" style="fill: #83c606; fill-opacity: 1;"></circle><circle cx="18.741" cy="25.756" r="1.769" style="fill: #fc0;"></circle><circle cx="26.328" cy="21.948" r="2.639" style="fill: #ff8c00;"></circle><circle cx="29.956" cy="11.184" r="2.908" style="fill: #8f00ff; fill-opacity: 1;"></circle><circle cx="32.204" cy="17.751" r="2.039" style="fill: #ff0023; fill-opacity: 1;"></circle><circle cx="38.381" cy="12.174" r="3.178" style="fill: #5e00ff; fill-opacity: 1;"></circle><circle cx="48.636" cy="15.832" r="2.279" style="fill: #ff00ed; fill-opacity: 0;"></circle><circle cx="55.472" cy="1.919" r="1.919" style="fill: #90f; fill-opacity: 0;"></circle><circle cx="46.417" cy="6.177" r="2.938" style="fill: #5e00ff; fill-opacity: 0;"></circle></svg></g> <g transform="rotate(0 287.5 411.9146979424619)"><svg y="368.82969885798923" viewBox="5.679999828338623 21.90999984741211 382.08001708984375 86.16999816894531" x="96.45999145507812" height="86.16999816894531" width="382.08001708984375" style="overflow: visible;"><g fill="#171d4e" fill-opacity="1" style=""><path d="M54.86 28.92L54.86 86.50L43.33 86.50L17.22 47.04L17.22 86.50L5.68 86.50L5.68 28.92L17.22 28.92L43.33 68.46L43.33 28.92L54.86 28.92ZM119.53 46.30L106.27 46.30Q104.29 42.67 100.83 40.78Q97.37 38.88 92.76 38.88L92.76 38.88Q87.65 38.88 83.70 41.19Q79.74 43.50 77.52 47.78Q75.29 52.06 75.29 57.67L75.29 57.67Q75.29 63.43 77.56 67.72Q79.83 72.00 83.86 74.31Q87.90 76.61 93.25 76.61L93.25 76.61Q99.84 76.61 104.05 73.11Q108.25 69.61 109.56 63.35L109.56 63.35L89.79 63.35L89.79 54.54L120.93 54.54L120.93 64.59Q119.78 70.60 115.99 75.71Q112.20 80.81 106.23 83.90Q100.26 86.99 92.84 86.99L92.84 86.99Q84.52 86.99 77.81 83.24Q71.09 79.50 67.26 72.82Q63.43 66.15 63.43 57.67L63.43 57.67Q63.43 49.18 67.26 42.47Q71.09 35.75 77.81 32.00Q84.52 28.26 92.76 28.26L92.76 28.26Q102.48 28.26 109.65 32.99Q116.81 37.73 119.53 46.30L119.53 46.30ZM171.93 62.69Q171.93 65.16 171.60 67.14L171.60 67.14L138.23 67.14Q138.64 72.08 141.69 74.88Q144.74 77.68 149.19 77.68L149.19 77.68Q155.62 77.68 158.33 72.16L158.33 72.16L170.77 72.16Q168.80 78.75 163.19 83.00Q157.59 87.24 149.44 87.24L149.44 87.24Q142.85 87.24 137.62 84.32Q132.38 81.39 129.46 76.04Q126.54 70.68 126.54 63.68L126.54 63.68Q126.54 56.59 129.42 51.24Q132.30 45.89 137.49 43.00Q142.68 40.12 149.44 40.12L149.44 40.12Q155.94 40.12 161.09 42.92Q166.24 45.72 169.08 50.87Q171.93 56.02 171.93 62.69L171.93 62.69ZM138.32 59.40L159.98 59.40Q159.90 54.95 156.77 52.27Q153.64 49.59 149.11 49.59L149.11 49.59Q144.82 49.59 141.90 52.19Q138.97 54.78 138.32 59.40L138.32 59.40ZM205.62 40.20Q213.78 40.20 218.80 45.35Q223.83 50.50 223.83 59.73L223.83 59.73L223.83 86.50L212.29 86.50L212.29 61.29Q212.29 55.85 209.57 52.93Q206.86 50.00 202.16 50.00L202.16 50.00Q197.38 50.00 194.62 52.93Q191.86 55.85 191.86 61.29L191.86 61.29L191.86 86.50L180.33 86.50L180.33 40.86L191.86 40.86L191.86 46.54Q194.17 43.58 197.75 41.89Q201.34 40.20 205.62 40.20L205.62 40.20ZM266.25 40.86L277.87 40.86L277.87 86.50L266.25 86.50L266.25 80.73Q264.03 83.70 260.44 85.39Q256.86 87.08 252.66 87.08L252.66 87.08Q247.30 87.08 243.18 84.81Q239.07 82.54 236.72 78.14Q234.37 73.73 234.37 67.63L234.37 67.63L234.37 40.86L245.90 40.86L245.90 65.99Q245.90 71.42 248.62 74.35Q251.34 77.27 256.04 77.27L256.04 77.27Q260.81 77.27 263.53 74.35Q266.25 71.42 266.25 65.99L266.25 65.99L266.25 40.86ZM295.08 35.42Q292.04 35.42 290.02 33.49Q288.00 31.55 288.00 28.67L288.00 28.67Q288.00 25.78 290.02 23.85Q292.04 21.91 295.08 21.91L295.08 21.91Q298.13 21.91 300.15 23.85Q302.17 25.78 302.17 28.67L302.17 28.67Q302.17 31.55 300.15 33.49Q298.13 35.42 295.08 35.42L295.08 35.42ZM289.23 40.86L300.77 40.86L300.77 86.50L289.23 86.50L289.23 40.86ZM335.78 50.33L325.56 50.33L325.56 72.41Q325.56 74.72 326.68 75.75Q327.79 76.78 330.42 76.78L330.42 76.78L335.78 76.78L335.78 86.50L328.53 86.50Q313.95 86.50 313.95 72.33L313.95 72.33L313.95 50.33L308.51 50.33L308.51 40.86L313.95 40.86L313.95 29.57L325.56 29.57L325.56 40.86L335.78 40.86L335.78 50.33ZM375.49 40.86L387.76 40.86L359.50 108.08L347.23 108.08L357.12 85.35L338.83 40.86L351.76 40.86L363.54 72.74L375.49 40.86Z" transform="translate(0, 0)"></path></g></svg></g></svg>